<svg xmlns="http://www.w3.org/2000/svg" height="132.038" width="395.52" xmlns:v="https://vecta.io/nano"><svg viewBox="0 0 663.409 221.468" height="132.038" width="395.52"><g transform="translate(267.889)"><svg height="221.468" width="395.52"><svg height="221.468" width="395.52"><svg height="119.449" width="395.52"><svg width="395.52" viewBox="1.55 -38.05 127.14 38.4" height="119.449"><path d="M5.45-36.83Q6.6-38 8.25-38q1.65 0 2.83 1.17 1.17 1.18 1.17 2.83 0 1.65-1.17 2.8-1.18 1.15-2.83 1.15-1.65 0-2.8-1.15Q4.3-32.35 4.3-34q0-1.65 1.15-2.83zM3.4-22.15q.5-.9 1.9-1.38Q6.7-24 8.08-24q1.37 0 2.42.35h0Q8.55-8.6 8.55-8.45h0q-.25 1-.25 1.67 0 .68.1 1.18h0q.2 1.3 1.83 1.3 1.62 0 3-2.13 1.37-2.12 2.07-4.82h0q.35.2 1.1 1.2.75 1 .9 1.5h0q-1 4-3.4 6.45h0Q11.5.35 8.15.35 4.8.35 3.18-1.3 1.55-2.95 1.55-5.55h0q0-.55.05-1.15h0l1.8-15.45zm10.25-4.9h0q0-4.75 4.2-7.88 4.2-3.12 11.1-3.12h0q3.65 0 6.55.72 2.9.73 4.6 1.83 1.7 1.1 2.85 2.55h0q1.9 2.5 1.87 5.57-.02 3.08-2.42 5.48-2.4 2.4-5.8 2.5h0q4.25.3 7.37 2.8 3.13 2.5 3.13 6.3h0q0 5-3.85 7.8Q39.4.3 33.87.3q-5.52 0-7.52-1.45h0l1.55-4.2q2.2 1.15 5.12 1.15 2.93 0 4.78-1.73 1.85-1.72 1.85-4.57 0-2.85-2.53-4.8-2.52-1.95-6.87-1.95h0l.45-3.7q3 0 5.07-1.43 2.08-1.42 2.15-4.27.08-2.85-2.57-4.8h0q-2.85-2.05-7.8-2.05h0q-3.25 0-6.35 1.67-3.1 1.68-3.1 4.48h0q0 1.35 1.1 2.27 1.1.93 2.9 1.13h0l-.55 3.7q-3.8-.15-5.85-2.15-2.05-2-2.05-4.65zM27.95-9.6q-.8 5.35-3.1 7.58Q22.55.2 19.45.2q-3.1 0-4.7-1.6-1.6-1.6-1.6-4.1h0q0-5.9 8.95-10.05h0q.25-2.1.72-5.68.48-3.57.75-5.77.28-2.2.38-2.9h0q2.05-1.3 4.75-1.3h0q1.25 0 2.4.25h0L27.95-9.6zm-11.1 3.45h0q0 1.8 1.7 1.8h0q.7 0 1.47-.93.78-.92 1.08-2.92h0l.45-3.1q-4.7 2.65-4.7 5.15zm44.8-17.9h0q4.6 0 7.67 2.95 3.08 2.95 3.08 7.2h0q0 6.45-3.78 10.32Q64.84.3 59.5.3q-5.35 0-8.48-3.05Q47.9-5.8 47.9-10.3h0q0-6.3 3.85-10h0q3.9-3.75 9.9-3.75zM60.67-20q-2.37 0-3.97 2.7-1.6 2.7-1.75 6.8h0q0 2.9 1.17 4.8 1.18 1.9 3.58 1.9 2.4 0 4.02-2.65 1.62-2.65 1.62-6.05 0-3.4-1.14-5.4h0Q63.05-20 60.67-20zm26.97-4.05h0q4.6 0 7.68 2.95 3.07 2.95 3.07 7.2h0q0 6.45-3.77 10.32Q90.84.3 85.49.3q-5.35 0-8.47-3.05-3.13-3.05-3.13-7.55h0q0-6.3 3.85-10h0q3.9-3.75 9.9-3.75zM86.67-20q-2.38 0-3.98 2.7-1.6 2.7-1.75 6.8h0q0 2.9 1.18 4.8 1.17 1.9 3.57 1.9 2.4 0 4.03-2.65 1.62-2.65 1.62-6.05 0-3.4-1.15-5.4h0Q89.04-20 86.67-20zm36.52 2h0q0 5.2-6.2 7.95h0q.15.9.45 2.15h0q.9 3.7 3 3.8h0q.15 0 .3 0h0q4 0 5.95-7.05h0q1.05.95 2 2.85h0q-.7 2.7-1.97 4.55-1.28 1.85-2.78 2.65h0q-2.65 1.4-5 1.4h0q-5.5 0-7.7-6.15h0q-.85-2.45-1.15-5h0q2.85-.7 4.5-2.33 1.65-1.62 1.65-3.47h0q0-3.2-3.2-3.2h0q-1.75 0-3 1.32-1.25 1.33-1.65 3.18h0q-.3 2.55-.97 8.02-.68 5.48-.88 7.33h0-6.65q3.6-30.65 4.35-37.65h0q1.05-.4 2.85-.4h0q3.9 0 3.9 2.3h0v.3q-1 9.05-1.85 13.85h0q2.75-2.55 6.9-2.55h0q3.1 0 5.13 1.6 2.02 1.6 2.02 4.55z" fill="#89939e"/></svg></svg><g transform="translate(0 147.648)"><svg height="73.82" width="211.424"><svg width="211.424" viewBox="4.15 -36.5 106.39 37.15" height="73.82"><path d="M7.05 0q-1.1 0-1.7-.6-.6-.6-.6-1.6h0l-.1-26.65q0-2.1-.07-3.55-.08-1.45-.43-2.45h0q3.8-.35 10.4-.35h0q7.05 0 10.78 4.42 3.72 4.43 3.72 13.23h0Q29.05 0 14.75 0h0-7.7zM8.7-1.85h5.85q5.05 0 7.58-3.65 2.52-3.65 2.52-11.8h0q0-8.2-2.55-12.1-2.55-3.9-7.55-3.9h0-5.9L8.7-1.85zm37 2.5q-5.4 0-8.43-3.53-3.02-3.52-3.02-9.82h0q0-6.3 3.02-9.83 3.03-3.52 8.43-3.52h0q5.45 0 8.47 3.52Q57.2-19 57.2-12.7h0q0 6.3-3.03 9.82Q51.15.65 45.7.65h0zm0-1.8q3.5 0 5.35-2.98Q52.9-7.1 52.9-12.7h0q0-5.6-1.85-8.55-1.85-2.95-5.35-2.95h0q-3.5 0-5.35 2.95-1.85 2.95-1.85 8.55h0q0 5.6 1.85 8.57 1.85 2.98 5.35 2.98h0zM73.2.65q-5.5 0-8.55-3.4-3.05-3.4-3.05-9.8h0q0-6.3 3.12-9.9 3.13-3.6 8.83-3.6h0q4.05 0 6.27 1.75 2.23 1.75 2.23 4.6h0q0 1.75-.93 2.8-.92 1.05-2.37 1.05h0q-1.65 0-2.35-.95h0q1.65-.65 1.65-3.2h0q0-2.15-1.38-3.23-1.37-1.07-3.47-1.07h0q-3.35 0-5.35 2.9-2 2.9-2 8.25h0q0 5.75 2.3 8.4 2.3 2.65 6.1 2.65h0Q77-2.1 79-3.45q2-1.35 2.6-3.9h0q.75.25.75 1.25h0q0 .65-.25 1.35h0q-.8 2.6-3.18 4Q76.55.65 73.2.65h0zm36.79-4.15q.55.6.55 1.45h0q0 1.1-1 1.85-1 .75-2.35.75h0q-1.25 0-2.27-.75-1.03-.75-1.63-2.15h0l-4.3-8.5q-2.85 1.05-6.3 1.9h0q0 4.55.1 5.95.1 1.4.6 2.65h0q-.5.4-1.02.65-.53.25-1.38.25h0q-1.25 0-1.72-.63-.48-.62-.48-1.77h0l-.05-32.45q0-1.05.63-1.63.62-.57 1.67-.57h0q1.4 0 2.3.9h0q-.35 1.7-.45 3.05-.1 1.35-.15 3.45h0l-.05 1.35-.05 9.15q1.15-3.4 3.75-5.43 2.6-2.02 6.15-2.02h0q2.95 0 4.58 1.55 1.62 1.55 1.62 4.15h0q0 2.85-1.95 5-1.95 2.15-5 3.55h0q.85.35 1.85 1.95h0l2.95 5.3q.6.95.98 1.32.37.38 1.02.38h0q.85 0 1.4-.65h0zm-17.3-7.25q5.35-1.55 8.68-3.73 3.32-2.17 3.32-5.62h0q0-1.85-.95-2.73-.95-.87-2.55-.87h0q-2.5 0-4.42 1.67-1.93 1.68-3 4.6-1.08 2.93-1.08 6.68h0z" fill="#89939e"/></svg></svg></g></svg></svg></g><g transform="translate(0 4.988)"><svg height="211.491" width="211.491"><svg height="211.491" width="211.491"><path d="M0 105.746C0 47.344 47.344 0 105.746 0s105.746 47.344 105.745 105.746-47.344 105.746-105.745 105.745S0 164.147 0 105.746zm105.746 94.973c52.452 0 94.974-42.521 94.973-94.973s-42.521-94.974-94.973-94.974-94.974 42.521-94.974 94.974 42.521 94.974 94.974 94.973z" fill="#89939e" stroke="transparent"/><g transform="translate(59.088 67.693)"><svg height="76.105" width="93.315"><svg viewBox="5 13.218 90.16 73.532" height="76.105" width="93.315"><path d="M11.601 66.382v6.363h13.131v-6.363c1.268-.283 2.239-1.367 2.239-2.721v-.555c0-1.354-.971-2.436-2.239-2.721v-33.87c1.268-.285 2.239-1.367 2.239-2.72v-.555c0-1.354-.971-2.435-2.239-2.72v-5.275H11.601v5.275c-1.268.288-2.237 1.369-2.237 2.72v.556c0 1.351.969 2.435 2.237 2.72v33.87c-1.268.285-2.237 1.369-2.237 2.721v.555c0 1.353.969 2.435 2.237 2.72zm-.342-42.587v-.555a.95.95 0 0 1 .949-.946h11.921a.95.95 0 0 1 .946.946v.556c0 .524-.425.946-.946.946H12.208a.95.95 0 0 1-.949-.947zm0 39.311c0-.524.425-.947.949-.947h11.921c.521 0 .946.423.946.947v.555a.95.95 0 0 1-.946.949H12.208a.95.95 0 0 1-.949-.949v-.555zM5 75.43h90.16v11.32H5zm53.31-50.328h11.376v47.644H58.31zM46.465 13.218l11.079 2.585L44.26 72.738l-11.079-2.585zm25.996 6.699h14.205v52.828H72.461z" fill="#89939e"/></svg></svg></g></svg></svg></g></svg></svg>