<?xml version="1.0" encoding="UTF-8"?>
<svg xmlns="http://www.w3.org/2000/svg" xmlns:xlink="http://www.w3.org/1999/xlink" width="180px"
  height="60px" viewBox="0 0 180 60" version="1.1">
  <defs>
    <clipPath id="clip1">
      <path
        d="M 72.597656 0 L 179.78125 0 L 179.78125 32.371094 L 72.597656 32.371094 Z M 72.597656 0 " />
    </clipPath>
    <clipPath id="clip2">
      <path
        d="M 72.597656 40.011719 L 129.894531 40.011719 L 129.894531 60 L 72.597656 60 Z M 72.597656 40.011719 " />
    </clipPath>
    <clipPath id="clip3">
      <path d="M 0 1.351562 L 57.3125 1.351562 L 57.3125 58.664062 L 0 58.664062 Z M 0 1.351562 " />
    </clipPath>
    <clipPath id="clip4">
      <path
        d="M 16.011719 19.695312 L 41.300781 19.695312 L 41.300781 40.320312 L 16.011719 40.320312 Z M 16.011719 19.695312 " />
    </clipPath>
  </defs>
  <g id="surface1">
    <g clip-path="url(#clip1)" clip-rule="nonzero">
      <path
        style=" stroke:none;fill-rule:nonzero;fill:rgb(53.72549%,57.647059%,61.960784%);fill-opacity:1;"
        d="M 75.890625 1.027344 C 76.535156 0.371094 77.320312 0.0429688 78.25 0.0429688 C 79.175781 0.0429688 79.972656 0.371094 80.636719 1.027344 C 81.292969 1.691406 81.621094 2.488281 81.621094 3.414062 C 81.621094 4.339844 81.292969 5.128906 80.636719 5.773438 C 79.972656 6.421875 79.175781 6.742188 78.25 6.742188 C 77.320312 6.742188 76.535156 6.421875 75.890625 5.773438 C 75.242188 5.128906 74.917969 4.339844 74.917969 3.414062 C 74.917969 2.488281 75.242188 1.691406 75.890625 1.027344 Z M 74.160156 13.402344 C 74.441406 12.898438 74.976562 12.511719 75.761719 12.238281 C 76.550781 11.976562 77.332031 11.84375 78.105469 11.84375 C 78.875 11.84375 79.554688 11.941406 80.144531 12.140625 C 79.050781 20.597656 78.503906 24.867188 78.503906 24.953125 C 78.363281 25.515625 78.292969 25.984375 78.292969 26.359375 C 78.292969 26.742188 78.320312 27.074219 78.375 27.355469 C 78.488281 28.085938 79.003906 28.449219 79.917969 28.449219 C 80.828125 28.449219 81.671875 27.851562 82.449219 26.65625 C 83.21875 25.464844 83.800781 24.109375 84.191406 22.59375 C 84.390625 22.703125 84.699219 23.042969 85.121094 23.601562 C 85.542969 24.164062 85.792969 24.585938 85.878906 24.867188 C 85.316406 27.117188 84.359375 28.929688 83.011719 30.304688 C 81.664062 31.683594 80.046875 32.371094 78.164062 32.371094 C 76.28125 32.371094 74.886719 31.90625 73.976562 30.980469 C 73.058594 30.050781 72.601562 28.859375 72.601562 27.398438 C 72.601562 27.085938 72.617188 26.765625 72.644531 26.425781 Z M 82.800781 9.273438 C 82.800781 6.601562 83.980469 4.390625 86.34375 2.628906 C 88.703125 0.875 91.820312 0 95.699219 0 C 97.75 0 99.589844 0.203125 101.21875 0.605469 C 102.851562 1.015625 104.144531 1.53125 105.097656 2.148438 C 106.054688 2.769531 106.855469 3.484375 107.5 4.300781 C 108.570312 5.703125 109.09375 7.269531 109.078125 8.996094 C 109.066406 10.726562 108.386719 12.265625 107.035156 13.613281 C 105.6875 14.964844 104.058594 15.664062 102.148438 15.722656 C 104.535156 15.890625 106.605469 16.675781 108.359375 18.082031 C 110.121094 19.488281 111 21.257812 111 23.394531 C 111 26.203125 109.917969 28.394531 107.753906 29.96875 C 105.589844 31.542969 102.953125 32.328125 99.847656 32.328125 C 96.746094 32.328125 94.632812 31.921875 93.507812 31.105469 L 94.8125 27.566406 C 96.050781 28.210938 97.488281 28.535156 99.128906 28.535156 C 100.777344 28.535156 102.121094 28.046875 103.160156 27.078125 C 104.199219 26.109375 104.71875 24.824219 104.71875 23.222656 C 104.71875 21.621094 104.007812 20.273438 102.585938 19.179688 C 101.167969 18.082031 99.238281 17.535156 96.792969 17.535156 L 97.175781 14.414062 C 98.859375 14.414062 100.285156 14.011719 101.449219 13.210938 C 102.617188 12.410156 103.222656 11.210938 103.261719 9.609375 C 103.304688 8.007812 102.582031 6.660156 101.09375 5.5625 C 99.492188 4.410156 97.300781 3.835938 94.519531 3.835938 C 92.691406 3.835938 90.90625 4.304688 89.164062 5.242188 C 87.421875 6.1875 86.550781 7.445312 86.550781 9.019531 C 86.550781 9.777344 86.863281 10.417969 87.480469 10.933594 C 88.097656 11.457031 88.914062 11.773438 89.925781 11.886719 L 89.460938 15.003906 C 87.324219 14.921875 85.679688 14.316406 84.53125 13.191406 C 83.378906 12.070312 82.800781 10.761719 82.800781 9.273438 Z M 94.855469 23.984375 C 94.40625 26.988281 93.535156 29.121094 92.242188 30.371094 C 90.949219 31.621094 89.433594 32.242188 87.691406 32.242188 C 85.949219 32.242188 84.628906 31.792969 83.730469 30.894531 C 82.828125 29.996094 82.378906 28.84375 82.378906 27.4375 C 82.378906 24.125 84.894531 21.300781 89.925781 18.96875 C 90.066406 17.785156 90.265625 16.191406 90.53125 14.179688 C 90.800781 12.171875 91.011719 10.550781 91.164062 9.316406 C 91.320312 8.078125 91.429688 7.265625 91.484375 6.871094 C 92.636719 6.140625 93.972656 5.773438 95.488281 5.773438 C 96.191406 5.773438 96.863281 5.84375 97.511719 5.984375 Z M 85.5 26.890625 C 85.5 27.902344 85.976562 28.410156 86.933594 28.410156 C 87.324219 28.410156 87.738281 28.148438 88.171875 27.625 C 88.609375 27.105469 88.914062 26.285156 89.082031 25.164062 L 89.460938 22.550781 C 86.820312 24.039062 85.5 25.484375 85.5 26.890625 Z M 123.265625 11.800781 C 125.847656 11.800781 128.003906 12.628906 129.730469 14.289062 C 131.460938 15.945312 132.328125 17.96875 132.328125 20.359375 C 132.328125 23.984375 131.265625 26.882812 129.140625 29.058594 C 127.015625 31.238281 124.453125 32.328125 121.453125 32.328125 C 118.445312 32.328125 116.0625 31.472656 114.304688 29.757812 C 112.550781 28.042969 111.671875 25.921875 111.671875 23.394531 C 111.671875 19.851562 112.753906 17.042969 114.917969 14.964844 C 117.109375 12.855469 119.890625 11.800781 123.265625 11.800781 Z M 122.4375 15.214844 C 121.105469 15.214844 119.992188 15.972656 119.089844 17.492188 C 118.191406 19.007812 117.699219 20.921875 117.617188 23.222656 C 117.617188 24.855469 117.945312 26.203125 118.601562 27.269531 C 119.265625 28.339844 120.273438 28.871094 121.621094 28.871094 C 122.96875 28.871094 124.097656 28.128906 125.007812 26.636719 C 125.917969 25.148438 126.375 23.449219 126.375 21.539062 C 126.375 19.628906 126.054688 18.109375 125.414062 16.984375 C 124.769531 15.804688 123.777344 15.214844 122.4375 15.214844 Z M 145.171875 11.800781 C 147.757812 11.800781 149.917969 12.628906 151.648438 14.289062 C 153.371094 15.945312 154.234375 17.96875 154.234375 20.359375 C 154.234375 23.984375 153.175781 26.882812 151.058594 29.058594 C 148.933594 31.238281 146.367188 32.328125 143.359375 32.328125 C 140.355469 32.328125 137.972656 31.472656 136.222656 29.757812 C 134.460938 28.042969 133.582031 25.921875 133.582031 23.394531 C 133.582031 19.851562 134.664062 17.042969 136.828125 14.964844 C 139.019531 12.855469 141.800781 11.800781 145.171875 11.800781 Z M 144.355469 15.214844 C 143.019531 15.214844 141.898438 15.972656 141 17.492188 C 140.101562 19.007812 139.609375 20.921875 139.523438 23.222656 C 139.523438 24.855469 139.855469 26.203125 140.519531 27.269531 C 141.175781 28.339844 142.179688 28.871094 143.53125 28.871094 C 144.878906 28.871094 146.011719 28.128906 146.925781 26.636719 C 147.835938 25.148438 148.292969 23.449219 148.292969 21.539062 C 148.292969 19.628906 147.96875 18.109375 147.324219 16.984375 C 146.675781 15.804688 145.6875 15.214844 144.355469 15.214844 Z M 175.140625 16.902344 C 175.140625 19.824219 173.398438 22.058594 169.914062 23.601562 C 170 24.109375 170.125 24.714844 170.292969 25.414062 C 170.800781 27.496094 171.644531 28.5625 172.824219 28.617188 C 172.90625 28.617188 172.992188 28.617188 173.074219 28.617188 C 175.324219 28.617188 176.996094 26.636719 178.089844 22.675781 C 178.679688 23.210938 179.242188 24.011719 179.777344 25.078125 C 179.382812 26.597656 178.832031 27.875 178.117188 28.914062 C 177.398438 29.953125 176.617188 30.699219 175.773438 31.148438 C 174.285156 31.933594 172.878906 32.328125 171.558594 32.328125 C 168.46875 32.328125 166.304688 30.601562 165.066406 27.144531 C 164.589844 25.765625 164.265625 24.363281 164.097656 22.929688 C 165.699219 22.535156 166.964844 21.882812 167.890625 20.964844 C 168.820312 20.054688 169.28125 19.078125 169.28125 18.039062 C 169.28125 16.242188 168.382812 15.34375 166.585938 15.34375 C 165.601562 15.34375 164.757812 15.714844 164.054688 16.453125 C 163.351562 17.203125 162.890625 18.097656 162.664062 19.136719 C 162.496094 20.570312 162.222656 22.820312 161.847656 25.894531 C 161.464844 28.976562 161.21875 31.035156 161.105469 32.074219 L 155.5 32.074219 C 157.523438 14.851562 158.746094 4.269531 159.167969 0.335938 C 159.757812 0.113281 160.558594 0 161.570312 0 C 163.761719 0 164.855469 0.644531 164.855469 1.9375 L 164.855469 2.191406 C 164.292969 7.277344 163.773438 11.167969 163.296875 13.867188 C 164.84375 12.433594 166.78125 11.71875 169.113281 11.71875 C 170.855469 11.71875 172.296875 12.167969 173.4375 13.066406 C 174.574219 13.964844 175.140625 15.242188 175.140625 16.902344 Z M 175.140625 16.902344 " />
    </g>
    <g clip-path="url(#clip2)" clip-rule="nonzero">
      <path
        style=" stroke:none;fill-rule:nonzero;fill:rgb(53.72549%,57.647059%,61.960784%);fill-opacity:1;"
        d="M 74.160156 59.667969 C 73.765625 59.667969 73.460938 59.558594 73.246094 59.34375 C 73.03125 59.128906 72.921875 58.839844 72.921875 58.484375 L 72.867188 44.132812 C 72.867188 43.378906 72.855469 42.742188 72.832031 42.21875 C 72.800781 41.699219 72.726562 41.257812 72.601562 40.902344 C 73.964844 40.773438 75.832031 40.710938 78.199219 40.710938 C 80.730469 40.710938 82.664062 41.503906 84.003906 43.09375 C 85.339844 44.683594 86.007812 47.058594 86.007812 50.214844 C 86.007812 56.515625 83.441406 59.667969 78.308594 59.667969 Z M 75.050781 58.671875 L 78.199219 58.671875 C 80.011719 58.671875 81.375 58.015625 82.28125 56.707031 C 83.1875 55.394531 83.640625 53.277344 83.640625 50.351562 C 83.640625 47.40625 83.179688 45.234375 82.265625 43.835938 C 81.351562 42.433594 79.996094 41.734375 78.199219 41.734375 L 75.023438 41.734375 Z M 94.972656 60.015625 C 93.035156 60.015625 91.523438 59.382812 90.433594 58.117188 C 89.351562 56.851562 88.808594 55.089844 88.808594 52.828125 C 88.808594 50.566406 89.351562 48.800781 90.433594 47.535156 C 91.523438 46.269531 93.035156 45.640625 94.972656 45.640625 C 96.929688 45.640625 98.449219 46.269531 99.535156 47.535156 C 100.621094 48.800781 101.167969 50.566406 101.167969 52.828125 C 101.167969 55.089844 100.621094 56.851562 99.535156 58.117188 C 98.449219 59.382812 96.929688 60.015625 94.972656 60.015625 Z M 94.972656 59.046875 C 96.230469 59.046875 97.191406 58.511719 97.855469 57.441406 C 98.519531 56.378906 98.851562 54.839844 98.851562 52.828125 C 98.851562 50.816406 98.519531 49.285156 97.855469 48.222656 C 97.191406 47.164062 96.230469 46.636719 94.972656 46.636719 C 93.71875 46.636719 92.757812 47.164062 92.09375 48.222656 C 91.429688 49.285156 91.097656 50.816406 91.097656 52.828125 C 91.097656 54.839844 91.429688 56.378906 92.09375 57.441406 C 92.757812 58.511719 93.71875 59.046875 94.972656 59.046875 Z M 109.78125 60.015625 C 107.808594 60.015625 106.273438 59.40625 105.179688 58.1875 C 104.082031 56.964844 103.535156 55.207031 103.535156 52.910156 C 103.535156 50.648438 104.097656 48.871094 105.214844 47.578125 C 106.339844 46.285156 107.925781 45.640625 109.972656 45.640625 C 111.425781 45.640625 112.550781 45.953125 113.347656 46.582031 C 114.148438 47.210938 114.546875 48.035156 114.546875 49.058594 C 114.546875 49.6875 114.382812 50.191406 114.046875 50.566406 C 113.71875 50.945312 113.292969 51.132812 112.769531 51.132812 C 112.179688 51.132812 111.757812 50.960938 111.503906 50.621094 C 112.097656 50.386719 112.394531 49.8125 112.394531 48.898438 C 112.394531 48.125 112.148438 47.546875 111.652344 47.15625 C 111.160156 46.773438 110.535156 46.582031 109.78125 46.582031 C 108.578125 46.582031 107.621094 47.101562 106.902344 48.144531 C 106.183594 49.183594 105.824219 50.664062 105.824219 52.585938 C 105.824219 54.648438 106.238281 56.15625 107.0625 57.109375 C 107.890625 58.0625 108.984375 58.535156 110.347656 58.535156 C 111.335938 58.535156 112.1875 58.292969 112.90625 57.808594 C 113.625 57.324219 114.089844 56.625 114.304688 55.710938 C 114.574219 55.800781 114.710938 56.023438 114.710938 56.382812 C 114.710938 56.617188 114.664062 56.859375 114.574219 57.109375 C 114.289062 58.042969 113.71875 58.761719 112.863281 59.261719 C 112.011719 59.765625 110.984375 60.015625 109.78125 60.015625 Z M 129.59375 57.78125 C 129.792969 57.996094 129.890625 58.257812 129.890625 58.5625 C 129.890625 58.957031 129.710938 59.289062 129.351562 59.558594 C 128.992188 59.828125 128.570312 59.964844 128.085938 59.964844 C 127.636719 59.964844 127.230469 59.828125 126.863281 59.558594 C 126.492188 59.289062 126.199219 58.90625 125.984375 58.402344 L 123.671875 53.824219 C 122.648438 54.203125 121.515625 54.542969 120.277344 54.847656 C 120.277344 56.480469 120.296875 57.550781 120.332031 58.050781 C 120.367188 58.554688 120.476562 59.03125 120.65625 59.480469 C 120.476562 59.621094 120.292969 59.738281 120.105469 59.828125 C 119.914062 59.917969 119.667969 59.964844 119.363281 59.964844 C 118.914062 59.964844 118.605469 59.851562 118.4375 59.625 C 118.265625 59.402344 118.175781 59.082031 118.175781 58.671875 L 118.152344 41.195312 C 118.152344 40.820312 118.265625 40.527344 118.488281 40.320312 C 118.710938 40.113281 119.011719 40.011719 119.390625 40.011719 C 119.890625 40.011719 120.304688 40.171875 120.628906 40.496094 C 120.503906 41.105469 120.421875 41.65625 120.386719 42.140625 C 120.347656 42.625 120.324219 43.242188 120.304688 43.996094 L 120.277344 44.722656 L 120.25 49.652344 C 120.664062 48.429688 121.335938 47.457031 122.269531 46.726562 C 123.203125 46.003906 124.308594 45.640625 125.582031 45.640625 C 126.640625 45.640625 127.464844 45.917969 128.046875 46.472656 C 128.628906 47.03125 128.921875 47.777344 128.921875 48.707031 C 128.921875 49.730469 128.570312 50.628906 127.871094 51.402344 C 127.171875 52.171875 126.273438 52.808594 125.179688 53.3125 C 125.484375 53.4375 125.816406 53.789062 126.175781 54.363281 L 127.761719 57.21875 C 127.976562 57.558594 128.152344 57.796875 128.289062 57.929688 C 128.421875 58.0625 128.605469 58.132812 128.839844 58.132812 C 129.144531 58.132812 129.394531 58.015625 129.59375 57.78125 Z M 120.277344 53.878906 C 122.199219 53.320312 123.757812 52.652344 124.953125 51.871094 C 126.144531 51.089844 126.738281 50.082031 126.738281 48.84375 C 126.738281 48.179688 126.570312 47.6875 126.226562 47.375 C 125.886719 47.0625 125.429688 46.90625 124.855469 46.90625 C 123.957031 46.90625 123.164062 47.203125 122.476562 47.804688 C 121.78125 48.40625 121.242188 49.234375 120.859375 50.28125 C 120.472656 51.332031 120.277344 52.53125 120.277344 53.878906 Z M 120.277344 53.878906 " />
    </g>
    <g clip-path="url(#clip3)" clip-rule="nonzero">
      <path
        style="fill-rule:nonzero;fill:rgb(53.72549%,57.647059%,61.960784%);fill-opacity:1;stroke-width:1;stroke-linecap:butt;stroke-linejoin:miter;stroke:rgb(100%,100%,100%);stroke-opacity:1;stroke-miterlimit:4;"
        d="M 0 105.74296 C 0 47.350352 47.351201 -0.000848636 105.743809 -0.000848636 C 164.15083 -0.000848636 211.487617 47.350352 211.487617 105.74296 C 211.487617 164.149982 164.15083 211.486768 105.743809 211.486768 C 47.351201 211.486768 0 164.149982 0 105.74296 Z M 105.743809 200.719235 C 158.197696 200.719235 200.720084 158.196847 200.720084 105.74296 C 200.720084 53.289072 158.197696 10.766685 105.743809 10.766685 C 53.289921 10.766685 10.767533 53.289072 10.767533 105.74296 C 10.767533 158.196847 53.289921 200.719235 105.743809 200.719235 Z M 105.743809 200.719235 "
        transform="matrix(0.270997,0,0,0.270997,0,1.351792)" />
    </g>
    <g clip-path="url(#clip4)" clip-rule="nonzero">
      <path
        style=" stroke:none;fill-rule:nonzero;fill:rgb(53.72549%,57.647059%,61.960784%);fill-opacity:1;"
        d="M 17.863281 34.609375 L 17.863281 36.390625 L 21.546875 36.390625 L 21.546875 34.609375 C 21.902344 34.527344 22.175781 34.222656 22.175781 33.84375 L 22.175781 33.6875 C 22.175781 33.308594 21.902344 33.003906 21.546875 32.925781 L 21.546875 23.425781 C 21.902344 23.347656 22.175781 23.042969 22.175781 22.664062 L 22.175781 22.507812 C 22.175781 22.128906 21.902344 21.824219 21.546875 21.746094 L 21.546875 20.265625 L 17.863281 20.265625 L 17.863281 21.746094 C 17.507812 21.824219 17.238281 22.128906 17.238281 22.507812 L 17.238281 22.664062 C 17.238281 23.042969 17.507812 23.347656 17.863281 23.425781 L 17.863281 32.925781 C 17.507812 33.007812 17.238281 33.308594 17.238281 33.6875 L 17.238281 33.84375 C 17.238281 34.222656 17.507812 34.527344 17.863281 34.609375 Z M 17.769531 22.664062 L 17.769531 22.507812 C 17.769531 22.359375 17.886719 22.242188 18.035156 22.242188 L 21.378906 22.242188 C 21.523438 22.242188 21.644531 22.359375 21.644531 22.507812 L 21.644531 22.664062 C 21.644531 22.808594 21.523438 22.929688 21.378906 22.929688 L 18.035156 22.929688 C 17.886719 22.929688 17.769531 22.808594 17.769531 22.664062 Z M 17.769531 33.6875 C 17.769531 33.542969 17.886719 33.421875 18.035156 33.421875 L 21.378906 33.421875 C 21.523438 33.421875 21.644531 33.542969 21.644531 33.6875 L 21.644531 33.84375 C 21.644531 33.992188 21.523438 34.109375 21.378906 34.109375 L 18.035156 34.109375 C 17.886719 34.109375 17.769531 33.992188 17.769531 33.84375 Z M 16.011719 37.144531 L 41.300781 37.144531 L 41.300781 40.320312 L 16.011719 40.320312 Z M 30.964844 23.03125 L 34.15625 23.03125 L 34.15625 36.394531 L 30.964844 36.394531 Z M 27.644531 19.695312 L 30.75 20.421875 L 27.023438 36.390625 L 23.917969 35.664062 Z M 34.933594 21.574219 L 38.917969 21.574219 L 38.917969 36.390625 L 34.933594 36.390625 Z M 34.933594 21.574219 " />
    </g>
  </g>
</svg>